<svg xmlns="http://www.w3.org/2000/svg" xmlns:xlink="http://www.w3.org/1999/xlink" width="500" zoomAndPan="magnify" viewBox="0 0 375 149.999998" height="200" preserveAspectRatio="xMidYMid meet" version="1.0"><defs><g/></defs><g fill="#308eff" fill-opacity="1"><g transform="translate(84.634758, 85.776295)"><g><path d="M 25.15625 0.9375 C 20.601562 0.9375 16.597656 -0.0195312 13.140625 -1.9375 C 9.691406 -3.863281 6.992188 -6.550781 5.046875 -10 C 3.109375 -13.457031 2.140625 -17.445312 2.140625 -21.96875 C 2.140625 -26.476562 3.097656 -30.457031 5.015625 -33.90625 C 6.941406 -37.363281 9.628906 -40.050781 13.078125 -41.96875 C 16.535156 -43.894531 20.519531 -44.859375 25.03125 -44.859375 C 28.96875 -44.859375 32.523438 -44.101562 35.703125 -42.59375 C 38.878906 -41.09375 41.546875 -38.984375 43.703125 -36.265625 C 45.859375 -33.546875 47.3125 -30.328125 48.0625 -26.609375 L 35.265625 -26.609375 C 34.597656 -28.578125 33.382812 -30.15625 31.625 -31.34375 C 29.863281 -32.53125 27.835938 -33.125 25.546875 -33.125 C 23.492188 -33.125 21.671875 -32.65625 20.078125 -31.71875 C 18.492188 -30.78125 17.25 -29.472656 16.34375 -27.796875 C 15.445312 -26.117188 15 -24.175781 15 -21.96875 C 15 -19.789062 15.4375 -17.851562 16.3125 -16.15625 C 17.1875 -14.457031 18.410156 -13.140625 19.984375 -12.203125 C 21.554688 -11.265625 23.363281 -10.796875 25.40625 -10.796875 C 27.789062 -10.796875 29.863281 -11.410156 31.625 -12.640625 C 33.382812 -13.878906 34.660156 -15.519531 35.453125 -17.5625 L 48.3125 -17.5625 C 47.6875 -13.84375 46.304688 -10.59375 44.171875 -7.8125 C 42.035156 -5.03125 39.347656 -2.875 36.109375 -1.34375 C 32.867188 0.175781 29.21875 0.9375 25.15625 0.9375 Z M 25.15625 0.9375 "/></g></g></g><g fill="#308eff" fill-opacity="1"><g transform="translate(137.525734, 85.776295)"><g><path d="M 4.640625 0 L 4.640625 -43.921875 L 17.3125 -43.921875 L 17.3125 -11.734375 L 35.265625 -11.734375 L 35.265625 0 Z M 4.640625 0 "/></g></g></g><g fill="#308eff" fill-opacity="1"><g transform="translate(176.927591, 85.776295)"><g><path d="M 26.046875 0.9375 C 22.523438 0.9375 19.3125 0.382812 16.40625 -0.71875 C 13.5 -1.832031 10.976562 -3.410156 8.84375 -5.453125 C 6.707031 -7.503906 5.054688 -9.929688 3.890625 -12.734375 C 2.722656 -15.535156 2.140625 -18.613281 2.140625 -21.96875 C 2.140625 -25.3125 2.722656 -28.382812 3.890625 -31.1875 C 5.054688 -33.988281 6.707031 -36.414062 8.84375 -38.46875 C 10.976562 -40.519531 13.5 -42.097656 16.40625 -43.203125 C 19.3125 -44.304688 22.523438 -44.859375 26.046875 -44.859375 C 29.554688 -44.859375 32.765625 -44.304688 35.671875 -43.203125 C 38.578125 -42.097656 41.097656 -40.519531 43.234375 -38.46875 C 45.367188 -36.414062 47.019531 -33.988281 48.1875 -31.1875 C 49.363281 -28.382812 49.953125 -25.3125 49.953125 -21.96875 C 49.953125 -18.613281 49.363281 -15.535156 48.1875 -12.734375 C 47.019531 -9.929688 45.367188 -7.503906 43.234375 -5.453125 C 41.097656 -3.410156 38.578125 -1.832031 35.671875 -0.71875 C 32.765625 0.382812 29.554688 0.9375 26.046875 0.9375 Z M 15 -21.96875 C 15 -19.789062 15.46875 -17.851562 16.40625 -16.15625 C 17.351562 -14.457031 18.660156 -13.140625 20.328125 -12.203125 C 22.003906 -11.265625 23.910156 -10.796875 26.046875 -10.796875 C 28.210938 -10.796875 30.125 -11.265625 31.78125 -12.203125 C 33.4375 -13.140625 34.734375 -14.457031 35.671875 -16.15625 C 36.609375 -17.851562 37.078125 -19.789062 37.078125 -21.96875 C 37.078125 -24.175781 36.609375 -26.117188 35.671875 -27.796875 C 34.734375 -29.472656 33.4375 -30.78125 31.78125 -31.71875 C 30.125 -32.65625 28.210938 -33.125 26.046875 -33.125 C 23.910156 -33.125 22.003906 -32.65625 20.328125 -31.71875 C 18.660156 -30.78125 17.351562 -29.472656 16.40625 -27.796875 C 15.46875 -26.117188 15 -24.175781 15 -21.96875 Z M 15 -21.96875 "/></g></g></g><g fill="#308eff" fill-opacity="1"><g transform="translate(231.638034, 85.776295)"><g><path d="M 25.15625 0.9375 C 20.601562 0.9375 16.597656 -0.0195312 13.140625 -1.9375 C 9.691406 -3.863281 6.992188 -6.550781 5.046875 -10 C 3.109375 -13.457031 2.140625 -17.445312 2.140625 -21.96875 C 2.140625 -26.476562 3.097656 -30.457031 5.015625 -33.90625 C 6.941406 -37.363281 9.628906 -40.050781 13.078125 -41.96875 C 16.535156 -43.894531 20.519531 -44.859375 25.03125 -44.859375 C 28.96875 -44.859375 32.523438 -44.101562 35.703125 -42.59375 C 38.878906 -41.09375 41.546875 -38.984375 43.703125 -36.265625 C 45.859375 -33.546875 47.3125 -30.328125 48.0625 -26.609375 L 35.265625 -26.609375 C 34.597656 -28.578125 33.382812 -30.15625 31.625 -31.34375 C 29.863281 -32.53125 27.835938 -33.125 25.546875 -33.125 C 23.492188 -33.125 21.671875 -32.65625 20.078125 -31.71875 C 18.492188 -30.78125 17.25 -29.472656 16.34375 -27.796875 C 15.445312 -26.117188 15 -24.175781 15 -21.96875 C 15 -19.789062 15.4375 -17.851562 16.3125 -16.15625 C 17.1875 -14.457031 18.410156 -13.140625 19.984375 -12.203125 C 21.554688 -11.265625 23.363281 -10.796875 25.40625 -10.796875 C 27.789062 -10.796875 29.863281 -11.410156 31.625 -12.640625 C 33.382812 -13.878906 34.660156 -15.519531 35.453125 -17.5625 L 48.3125 -17.5625 C 47.6875 -13.84375 46.304688 -10.59375 44.171875 -7.8125 C 42.035156 -5.03125 39.347656 -2.875 36.109375 -1.34375 C 32.867188 0.175781 29.21875 0.9375 25.15625 0.9375 Z M 25.15625 0.9375 "/></g></g></g><g fill="#308eff" fill-opacity="1"><g transform="translate(284.52901, 85.776295)"><g><path d="M 4.640625 0 L 4.640625 -43.921875 L 17.3125 -43.921875 L 17.3125 -28.171875 L 19.453125 -28.171875 C 20.960938 -28.171875 22.164062 -28.304688 23.0625 -28.578125 C 23.957031 -28.847656 24.6875 -29.328125 25.25 -30.015625 C 25.820312 -30.710938 26.316406 -31.6875 26.734375 -32.9375 L 30.6875 -43.921875 L 44.421875 -43.921875 L 37.90625 -27.546875 C 36.894531 -25.035156 35.722656 -22.960938 34.390625 -21.328125 L 45.9375 0 L 31.25 0 L 22.84375 -16.625 L 17.3125 -16.625 L 17.3125 0 Z M 4.640625 0 "/></g></g></g><g fill="#a6a6a6" fill-opacity="1"><g transform="translate(90.844878, 107.757617)"><g><path d="M 9.265625 -11.5625 L 9.265625 -9.640625 L 5.921875 -9.640625 L 5.921875 0 L 3.65625 0 L 3.65625 -9.640625 L 0.3125 -9.640625 L 0.3125 -11.5625 Z M 9.265625 -11.5625 "/></g></g></g><g fill="#a6a6a6" fill-opacity="1"><g transform="translate(101.076426, 107.757617)"><g><path d="M 1.5 0 L 1.5 -11.5625 L 6.140625 -11.5625 C 7.335938 -11.5625 8.238281 -11.285156 8.84375 -10.734375 C 9.457031 -10.179688 9.765625 -9.421875 9.765625 -8.453125 C 9.765625 -7.742188 9.582031 -7.164062 9.21875 -6.71875 C 8.863281 -6.269531 8.335938 -5.929688 7.640625 -5.703125 L 7.640625 -5.53125 C 8.003906 -5.375 8.296875 -5.140625 8.515625 -4.828125 C 8.742188 -4.515625 8.957031 -4.054688 9.15625 -3.453125 L 10.3125 0 L 7.953125 0 L 6.828125 -3.453125 C 6.710938 -3.796875 6.582031 -4.0625 6.4375 -4.25 C 6.289062 -4.445312 6.101562 -4.585938 5.875 -4.671875 C 5.65625 -4.765625 5.367188 -4.8125 5.015625 -4.8125 L 3.78125 -4.8125 L 3.78125 0 Z M 5.859375 -6.625 C 6.972656 -6.625 7.53125 -7.140625 7.53125 -8.171875 C 7.53125 -9.222656 6.972656 -9.75 5.859375 -9.75 L 3.78125 -9.75 L 3.78125 -6.625 Z M 5.859375 -6.625 "/></g></g></g><g fill="#a6a6a6" fill-opacity="1"><g transform="translate(112.531619, 107.757617)"><g><path d="M 11.09375 0 L 8.6875 0 L 7.8125 -2.65625 L 3.390625 -2.65625 L 2.515625 0 L 0.171875 0 L 4.171875 -11.5625 L 7.09375 -11.5625 Z M 5.5 -9.140625 L 4 -4.578125 L 7.1875 -4.578125 L 5.6875 -9.140625 Z M 5.5 -9.140625 "/></g></g></g><g fill="#a6a6a6" fill-opacity="1"><g transform="translate(124.444696, 107.757617)"><g><path d="M 6.3125 0.171875 C 5.25 0.171875 4.3125 -0.046875 3.5 -0.484375 C 2.6875 -0.929688 2.050781 -1.597656 1.59375 -2.484375 C 1.132812 -3.378906 0.90625 -4.476562 0.90625 -5.78125 C 0.90625 -7.082031 1.132812 -8.175781 1.59375 -9.0625 C 2.050781 -9.945312 2.6875 -10.609375 3.5 -11.046875 C 4.3125 -11.492188 5.25 -11.71875 6.3125 -11.71875 C 7.425781 -11.71875 8.367188 -11.5 9.140625 -11.0625 C 9.921875 -10.632812 10.476562 -9.972656 10.8125 -9.078125 L 9.140625 -8.0625 L 8.953125 -8.0625 C 8.703125 -8.664062 8.363281 -9.097656 7.9375 -9.359375 C 7.507812 -9.617188 6.96875 -9.75 6.3125 -9.75 C 5.351562 -9.75 4.601562 -9.429688 4.0625 -8.796875 C 3.53125 -8.160156 3.265625 -7.15625 3.265625 -5.78125 C 3.265625 -4.40625 3.53125 -3.398438 4.0625 -2.765625 C 4.601562 -2.128906 5.351562 -1.8125 6.3125 -1.8125 C 7.8125 -1.8125 8.734375 -2.539062 9.078125 -4 L 9.265625 -4 L 10.953125 -3.125 C 10.640625 -2.03125 10.097656 -1.207031 9.328125 -0.65625 C 8.566406 -0.101562 7.5625 0.171875 6.3125 0.171875 Z M 6.3125 0.171875 "/></g></g></g><g fill="#a6a6a6" fill-opacity="1"><g transform="translate(136.428821, 107.757617)"><g><path d="M 1.5 0 L 1.5 -11.5625 L 3.78125 -11.5625 L 3.78125 -6.84375 L 4.03125 -6.84375 L 7.890625 -11.5625 L 10.234375 -11.5625 L 10.234375 -11.359375 L 5.984375 -6.109375 L 10.671875 -0.203125 L 10.671875 0 L 8.09375 0 L 4.03125 -4.984375 L 3.78125 -4.984375 L 3.78125 0 Z M 1.5 0 "/></g></g></g><g fill="#a6a6a6" fill-opacity="1"><g transform="translate(147.757703, 107.757617)"><g><path d="M 2.234375 0.078125 C 1.953125 0.078125 1.703125 0.0195312 1.484375 -0.09375 C 1.273438 -0.207031 1.113281 -0.363281 1 -0.5625 C 0.882812 -0.769531 0.828125 -1 0.828125 -1.25 C 0.828125 -1.5 0.882812 -1.722656 1 -1.921875 C 1.113281 -2.128906 1.273438 -2.289062 1.484375 -2.40625 C 1.703125 -2.519531 1.953125 -2.578125 2.234375 -2.578125 C 2.515625 -2.578125 2.757812 -2.519531 2.96875 -2.40625 C 3.1875 -2.289062 3.351562 -2.132812 3.46875 -1.9375 C 3.582031 -1.738281 3.640625 -1.507812 3.640625 -1.25 C 3.640625 -0.875 3.507812 -0.554688 3.25 -0.296875 C 3 -0.046875 2.660156 0.078125 2.234375 0.078125 Z M 2.234375 0.078125 "/></g></g></g><g fill="#a6a6a6" fill-opacity="1"><g transform="translate(152.881506, 107.757617)"><g/></g></g><g fill="#a6a6a6" fill-opacity="1"><g transform="translate(157.35796, 107.757617)"><g><path d="M 6.296875 0.171875 C 5.234375 0.171875 4.296875 -0.0390625 3.484375 -0.46875 C 2.679688 -0.90625 2.050781 -1.566406 1.59375 -2.453125 C 1.132812 -3.347656 0.90625 -4.457031 0.90625 -5.78125 C 0.90625 -7.101562 1.132812 -8.207031 1.59375 -9.09375 C 2.050781 -9.976562 2.679688 -10.632812 3.484375 -11.0625 C 4.296875 -11.5 5.234375 -11.71875 6.296875 -11.71875 C 7.359375 -11.71875 8.289062 -11.503906 9.09375 -11.078125 C 9.90625 -10.648438 10.535156 -9.988281 10.984375 -9.09375 C 11.441406 -8.207031 11.671875 -7.101562 11.671875 -5.78125 C 11.671875 -4.457031 11.441406 -3.347656 10.984375 -2.453125 C 10.535156 -1.566406 9.90625 -0.90625 9.09375 -0.46875 C 8.289062 -0.0390625 7.359375 0.171875 6.296875 0.171875 Z M 6.296875 -1.8125 C 7.273438 -1.8125 8.019531 -2.125 8.53125 -2.75 C 9.050781 -3.382812 9.3125 -4.394531 9.3125 -5.78125 C 9.3125 -7.15625 9.050781 -8.160156 8.53125 -8.796875 C 8.019531 -9.429688 7.273438 -9.75 6.296875 -9.75 C 5.316406 -9.75 4.566406 -9.429688 4.046875 -8.796875 C 3.523438 -8.160156 3.265625 -7.15625 3.265625 -5.78125 C 3.265625 -4.394531 3.523438 -3.382812 4.046875 -2.75 C 4.566406 -2.125 5.316406 -1.8125 6.296875 -1.8125 Z M 6.296875 -1.8125 "/></g></g></g><g fill="#a6a6a6" fill-opacity="1"><g transform="translate(170.597311, 107.757617)"><g><path d="M 5.96875 -11.5625 C 6.789062 -11.5625 7.492188 -11.40625 8.078125 -11.09375 C 8.671875 -10.789062 9.117188 -10.367188 9.421875 -9.828125 C 9.722656 -9.285156 9.875 -8.648438 9.875 -7.921875 C 9.875 -7.203125 9.722656 -6.570312 9.421875 -6.03125 C 9.117188 -5.488281 8.671875 -5.066406 8.078125 -4.765625 C 7.492188 -4.460938 6.789062 -4.3125 5.96875 -4.3125 L 3.78125 -4.3125 L 3.78125 0 L 1.5 0 L 1.5 -11.5625 Z M 5.671875 -6.125 C 6.941406 -6.125 7.578125 -6.722656 7.578125 -7.921875 C 7.578125 -9.140625 6.941406 -9.75 5.671875 -9.75 L 3.78125 -9.75 L 3.78125 -6.125 Z M 5.671875 -6.125 "/></g></g></g><g fill="#a6a6a6" fill-opacity="1"><g transform="translate(181.807775, 107.757617)"><g><path d="M 9.265625 -11.5625 L 9.265625 -9.640625 L 5.921875 -9.640625 L 5.921875 0 L 3.65625 0 L 3.65625 -9.640625 L 0.3125 -9.640625 L 0.3125 -11.5625 Z M 9.265625 -11.5625 "/></g></g></g><g fill="#a6a6a6" fill-opacity="1"><g transform="translate(192.039325, 107.757617)"><g><path d="M 3.78125 0 L 1.5 0 L 1.5 -11.5625 L 3.78125 -11.5625 Z M 3.78125 0 "/></g></g></g><g fill="#a6a6a6" fill-opacity="1"><g transform="translate(197.992056, 107.757617)"><g><path d="M 3.59375 0 L 1.5 0 L 1.5 -11.5625 L 4.484375 -11.5625 L 7.40625 -3.0625 L 7.578125 -3.0625 L 10.484375 -11.5625 L 13.40625 -11.5625 L 13.40625 0 L 11.234375 0 L 11.234375 -7.640625 L 11.046875 -7.671875 L 8.375 0 L 6.46875 0 L 3.796875 -7.671875 L 3.59375 -7.640625 Z M 3.59375 0 "/></g></g></g><g fill="#a6a6a6" fill-opacity="1"><g transform="translate(213.552396, 107.757617)"><g><path d="M 3.78125 0 L 1.5 0 L 1.5 -11.5625 L 3.78125 -11.5625 Z M 3.78125 0 "/></g></g></g><g fill="#a6a6a6" fill-opacity="1"><g transform="translate(219.505127, 107.757617)"><g><path d="M 8.953125 0 L 0.46875 0 L 0.46875 -2.015625 L 6.265625 -9.484375 L 6.21875 -9.640625 L 0.703125 -9.640625 L 0.703125 -11.5625 L 8.90625 -11.5625 L 8.90625 -9.546875 L 3.109375 -2.078125 L 3.15625 -1.90625 L 8.953125 -1.90625 Z M 8.953125 0 "/></g></g></g><g fill="#a6a6a6" fill-opacity="1"><g transform="translate(229.594577, 107.757617)"><g><path d="M 3.78125 -5.078125 L 3.78125 -1.90625 L 9.296875 -1.90625 L 9.296875 0 L 1.5 0 L 1.5 -11.5625 L 9.171875 -11.5625 L 9.171875 -9.640625 L 3.78125 -9.640625 L 3.78125 -6.9375 L 8.5 -6.9375 L 8.5 -5.078125 Z M 3.78125 -5.078125 "/></g></g></g><g fill="#a6a6a6" fill-opacity="1"><g transform="translate(240.18138, 107.757617)"><g><path d="M 2.234375 0.078125 C 1.953125 0.078125 1.703125 0.0195312 1.484375 -0.09375 C 1.273438 -0.207031 1.113281 -0.363281 1 -0.5625 C 0.882812 -0.769531 0.828125 -1 0.828125 -1.25 C 0.828125 -1.5 0.882812 -1.722656 1 -1.921875 C 1.113281 -2.128906 1.273438 -2.289062 1.484375 -2.40625 C 1.703125 -2.519531 1.953125 -2.578125 2.234375 -2.578125 C 2.515625 -2.578125 2.757812 -2.519531 2.96875 -2.40625 C 3.1875 -2.289062 3.351562 -2.132812 3.46875 -1.9375 C 3.582031 -1.738281 3.640625 -1.507812 3.640625 -1.25 C 3.640625 -0.875 3.507812 -0.554688 3.25 -0.296875 C 3 -0.046875 2.660156 0.078125 2.234375 0.078125 Z M 2.234375 0.078125 "/></g></g></g><g fill="#a6a6a6" fill-opacity="1"><g transform="translate(245.305188, 107.757617)"><g/></g></g><g fill="#a6a6a6" fill-opacity="1"><g transform="translate(249.781647, 107.757617)"><g><path d="M 11.09375 0 L 8.6875 0 L 7.8125 -2.65625 L 3.390625 -2.65625 L 2.515625 0 L 0.171875 0 L 4.171875 -11.5625 L 7.09375 -11.5625 Z M 5.5 -9.140625 L 4 -4.578125 L 7.1875 -4.578125 L 5.6875 -9.140625 Z M 5.5 -9.140625 "/></g></g></g><g fill="#a6a6a6" fill-opacity="1"><g transform="translate(261.694727, 107.757617)"><g><path d="M 6.3125 0.171875 C 5.25 0.171875 4.3125 -0.046875 3.5 -0.484375 C 2.6875 -0.929688 2.050781 -1.597656 1.59375 -2.484375 C 1.132812 -3.378906 0.90625 -4.476562 0.90625 -5.78125 C 0.90625 -7.082031 1.132812 -8.175781 1.59375 -9.0625 C 2.050781 -9.945312 2.6875 -10.609375 3.5 -11.046875 C 4.3125 -11.492188 5.25 -11.71875 6.3125 -11.71875 C 7.425781 -11.71875 8.367188 -11.5 9.140625 -11.0625 C 9.921875 -10.632812 10.476562 -9.972656 10.8125 -9.078125 L 9.140625 -8.0625 L 8.953125 -8.0625 C 8.703125 -8.664062 8.363281 -9.097656 7.9375 -9.359375 C 7.507812 -9.617188 6.96875 -9.75 6.3125 -9.75 C 5.351562 -9.75 4.601562 -9.429688 4.0625 -8.796875 C 3.53125 -8.160156 3.265625 -7.15625 3.265625 -5.78125 C 3.265625 -4.40625 3.53125 -3.398438 4.0625 -2.765625 C 4.601562 -2.128906 5.351562 -1.8125 6.3125 -1.8125 C 7.8125 -1.8125 8.734375 -2.539062 9.078125 -4 L 9.265625 -4 L 10.953125 -3.125 C 10.640625 -2.03125 10.097656 -1.207031 9.328125 -0.65625 C 8.566406 -0.101562 7.5625 0.171875 6.3125 0.171875 Z M 6.3125 0.171875 "/></g></g></g><g fill="#a6a6a6" fill-opacity="1"><g transform="translate(273.678847, 107.757617)"><g><path d="M 8.96875 -7.203125 L 8.96875 -11.5625 L 11.234375 -11.5625 L 11.234375 0 L 8.96875 0 L 8.96875 -5.265625 L 3.78125 -5.265625 L 3.78125 0 L 1.5 0 L 1.5 -11.5625 L 3.78125 -11.5625 L 3.78125 -7.203125 Z M 8.96875 -7.203125 "/></g></g></g><g fill="#a6a6a6" fill-opacity="1"><g transform="translate(287.076083, 107.757617)"><g><path d="M 3.78125 0 L 1.5 0 L 1.5 -11.5625 L 3.78125 -11.5625 Z M 3.78125 0 "/></g></g></g><g fill="#a6a6a6" fill-opacity="1"><g transform="translate(293.028803, 107.757617)"><g><path d="M 3.78125 -5.078125 L 3.78125 -1.90625 L 9.296875 -1.90625 L 9.296875 0 L 1.5 0 L 1.5 -11.5625 L 9.171875 -11.5625 L 9.171875 -9.640625 L 3.78125 -9.640625 L 3.78125 -6.9375 L 8.5 -6.9375 L 8.5 -5.078125 Z M 3.78125 -5.078125 "/></g></g></g><g fill="#a6a6a6" fill-opacity="1"><g transform="translate(303.615596, 107.757617)"><g><path d="M 6.875 0 L 4.109375 0 L 0.203125 -11.5625 L 2.625 -11.5625 L 5.4375 -2.9375 L 5.640625 -2.9375 L 8.40625 -11.5625 L 10.765625 -11.5625 Z M 6.875 0 "/></g></g></g><g fill="#a6a6a6" fill-opacity="1"><g transform="translate(315.236569, 107.757617)"><g><path d="M 3.78125 -5.078125 L 3.78125 -1.90625 L 9.296875 -1.90625 L 9.296875 0 L 1.5 0 L 1.5 -11.5625 L 9.171875 -11.5625 L 9.171875 -9.640625 L 3.78125 -9.640625 L 3.78125 -6.9375 L 8.5 -6.9375 L 8.5 -5.078125 Z M 3.78125 -5.078125 "/></g></g></g><g fill="#a6a6a6" fill-opacity="1"><g transform="translate(325.823362, 107.757617)"><g><path d="M 2.234375 0.078125 C 1.953125 0.078125 1.703125 0.0195312 1.484375 -0.09375 C 1.273438 -0.207031 1.113281 -0.363281 1 -0.5625 C 0.882812 -0.769531 0.828125 -1 0.828125 -1.25 C 0.828125 -1.5 0.882812 -1.722656 1 -1.921875 C 1.113281 -2.128906 1.273438 -2.289062 1.484375 -2.40625 C 1.703125 -2.519531 1.953125 -2.578125 2.234375 -2.578125 C 2.515625 -2.578125 2.757812 -2.519531 2.96875 -2.40625 C 3.1875 -2.289062 3.351562 -2.132812 3.46875 -1.9375 C 3.582031 -1.738281 3.640625 -1.507812 3.640625 -1.25 C 3.640625 -0.875 3.507812 -0.554688 3.25 -0.296875 C 3 -0.046875 2.660156 0.078125 2.234375 0.078125 Z M 2.234375 0.078125 "/></g></g></g><g fill="#308eff" fill-opacity="1"><g transform="translate(34.453635, 110.607367)"><g><path d="M 26.140625 1.046875 C 21.773438 1.046875 17.988281 0.195312 14.78125 -1.5 C 11.570312 -3.195312 9.09375 -5.625 7.34375 -8.78125 C 5.601562 -11.945312 4.734375 -15.710938 4.734375 -20.078125 L 4.734375 -48.796875 L 18.828125 -48.796875 L 18.828125 -20.984375 C 18.828125 -15.078125 21.265625 -12.125 26.140625 -12.125 C 31.023438 -12.125 33.46875 -15.078125 33.46875 -20.984375 L 33.46875 -48.796875 L 47.484375 -48.796875 L 47.484375 -20.078125 C 47.484375 -15.710938 46.617188 -11.945312 44.890625 -8.78125 C 43.171875 -5.625 40.71875 -3.195312 37.53125 -1.5 C 34.351562 0.195312 30.554688 1.046875 26.140625 1.046875 Z M 26.140625 1.046875 "/></g></g></g><g fill="#a6a6a6" fill-opacity="1"><g transform="translate(39.966604, 56.310387)"><g><path d="M 9.625 0.921875 C 7.40625 0.921875 5.585938 0.226562 4.171875 -1.15625 C 2.753906 -2.550781 2.046875 -4.3125 2.046875 -6.4375 C 2.046875 -8.5625 2.753906 -10.316406 4.171875 -11.703125 C 5.585938 -13.097656 7.40625 -13.796875 9.625 -13.796875 C 11.84375 -13.796875 13.644531 -13.097656 15.03125 -11.703125 C 16.425781 -10.316406 17.125 -8.5625 17.125 -6.4375 C 17.125 -4.3125 16.425781 -2.550781 15.03125 -1.15625 C 13.644531 0.226562 11.84375 0.921875 9.625 0.921875 Z M 9.625 0.921875 "/></g></g></g><g fill="#a6a6a6" fill-opacity="1"><g transform="translate(62.042233, 56.310387)"><g><path d="M 9.625 0.921875 C 7.40625 0.921875 5.585938 0.226562 4.171875 -1.15625 C 2.753906 -2.550781 2.046875 -4.3125 2.046875 -6.4375 C 2.046875 -8.5625 2.753906 -10.316406 4.171875 -11.703125 C 5.585938 -13.097656 7.40625 -13.796875 9.625 -13.796875 C 11.84375 -13.796875 13.644531 -13.097656 15.03125 -11.703125 C 16.425781 -10.316406 17.125 -8.5625 17.125 -6.4375 C 17.125 -4.3125 16.425781 -2.550781 15.03125 -1.15625 C 13.644531 0.226562 11.84375 0.921875 9.625 0.921875 Z M 9.625 0.921875 "/></g></g></g></svg>